<svg xmlns="http://www.w3.org/2000/svg" viewBox="0 0 900 600" width="900" height="600">
  <defs>
    <linearGradient id="sky" x1="0%" y1="0%" x2="0%" y2="100%">
      <stop offset="0%" stop-color="#0a1f3d"/>
      <stop offset="60%" stop-color="#0d2d52"/>
      <stop offset="100%" stop-color="#071D3A"/>
    </linearGradient>
    <linearGradient id="glow" x1="0%" y1="0%" x2="100%" y2="100%">
      <stop offset="0%" stop-color="#1FE9E1" stop-opacity="0.25"/>
      <stop offset="100%" stop-color="#1FE9E1" stop-opacity="0"/>
    </linearGradient>
    <radialGradient id="cityGlow" cx="50%" cy="80%" r="50%">
      <stop offset="0%" stop-color="#1FE9E1" stop-opacity="0.12"/>
      <stop offset="100%" stop-color="#1FE9E1" stop-opacity="0"/>
    </radialGradient>
    <radialGradient id="globeGrad" cx="40%" cy="40%" r="60%">
      <stop offset="0%" stop-color="#1a4a7a"/>
      <stop offset="100%" stop-color="#071D3A"/>
    </radialGradient>
  </defs>

  <!-- Background -->
  <rect width="900" height="600" fill="url(#sky)"/>
  <rect width="900" height="600" fill="url(#cityGlow)"/>

  <!-- Stars -->
  <circle cx="80"  cy="40"  r="1.2" fill="white" opacity="0.6"/>
  <circle cx="210" cy="25"  r="0.8" fill="white" opacity="0.5"/>
  <circle cx="340" cy="55"  r="1"   fill="white" opacity="0.7"/>
  <circle cx="520" cy="20"  r="0.9" fill="white" opacity="0.5"/>
  <circle cx="670" cy="45"  r="1.2" fill="white" opacity="0.6"/>
  <circle cx="800" cy="30"  r="0.8" fill="white" opacity="0.4"/>
  <circle cx="150" cy="90"  r="0.7" fill="white" opacity="0.5"/>
  <circle cx="750" cy="80"  r="1"   fill="white" opacity="0.6"/>
  <circle cx="440" cy="70"  r="0.8" fill="white" opacity="0.4"/>

  <!-- Globe circle -->
  <circle cx="700" cy="220" r="140" fill="url(#globeGrad)" opacity="0.9"/>
  <circle cx="700" cy="220" r="140" fill="none" stroke="#1FE9E1" stroke-width="1.5" opacity="0.4"/>

  <!-- Globe meridians -->
  <ellipse cx="700" cy="220" rx="70"  ry="140" fill="none" stroke="#1FE9E1" stroke-width="0.8" opacity="0.25"/>
  <ellipse cx="700" cy="220" rx="120" ry="140" fill="none" stroke="#1FE9E1" stroke-width="0.8" opacity="0.2"/>
  <!-- Globe parallels -->
  <ellipse cx="700" cy="175" rx="135" ry="28" fill="none" stroke="#1FE9E1" stroke-width="0.8" opacity="0.2"/>
  <ellipse cx="700" cy="220" rx="140" ry="22" fill="none" stroke="#1FE9E1" stroke-width="0.8" opacity="0.25"/>
  <ellipse cx="700" cy="265" rx="135" ry="28" fill="none" stroke="#1FE9E1" stroke-width="0.8" opacity="0.2"/>

  <!-- Globe glow halo -->
  <circle cx="700" cy="220" r="160" fill="none" stroke="#1FE9E1" stroke-width="1" opacity="0.08"/>
  <circle cx="700" cy="220" r="180" fill="none" stroke="#1FE9E1" stroke-width="0.5" opacity="0.05"/>

  <!-- Location pins on globe -->
  <circle cx="645" cy="200" r="5" fill="#1FE9E1" opacity="0.9"/>
  <circle cx="645" cy="200" r="9" fill="none" stroke="#1FE9E1" stroke-width="1" opacity="0.4"/>
  <circle cx="720" cy="180" r="4" fill="#1FE9E1" opacity="0.8"/>
  <circle cx="760" cy="230" r="4" fill="#1FE9E1" opacity="0.8"/>
  <circle cx="700" cy="255" r="3.5" fill="#1FE9E1" opacity="0.7"/>

  <!-- Connection lines between pins -->
  <line x1="645" y1="200" x2="720" y2="180" stroke="#1FE9E1" stroke-width="1" opacity="0.35" stroke-dasharray="4 3"/>
  <line x1="720" y1="180" x2="760" y2="230" stroke="#1FE9E1" stroke-width="1" opacity="0.3" stroke-dasharray="4 3"/>
  <line x1="645" y1="200" x2="700" y2="255" stroke="#1FE9E1" stroke-width="1" opacity="0.3" stroke-dasharray="4 3"/>

  <!-- City skyline silhouette -->
  <!-- Buildings left -->
  <rect x="0"   y="420" width="40"  height="180" fill="#0d2442"/>
  <rect x="10"  y="380" width="25"  height="220" fill="#0a1f3a"/>
  <rect x="45"  y="440" width="35"  height="160" fill="#0d2442"/>
  <rect x="55"  y="410" width="20"  height="190" fill="#0a1f3a"/>
  <!-- Windows left -->
  <rect x="15"  y="395" width="5"   height="5"   fill="#1FE9E1" opacity="0.6"/>
  <rect x="15"  y="408" width="5"   height="5"   fill="#1FE9E1" opacity="0.4"/>
  <rect x="24"  y="395" width="5"   height="5"   fill="#1FE9E1" opacity="0.5"/>
  <rect x="59"  y="420" width="5"   height="5"   fill="#1FE9E1" opacity="0.5"/>
  <rect x="59"  y="433" width="5"   height="5"   fill="#1FE9E1" opacity="0.3"/>
  <rect x="68"  y="420" width="5"   height="5"   fill="#1FE9E1" opacity="0.6"/>

  <!-- Buildings center-left -->
  <rect x="90"  y="350" width="55"  height="250" fill="#0e2640"/>
  <rect x="105" y="300" width="30"  height="300" fill="#0b2138"/>
  <rect x="115" y="285" width="10"  height="15"  fill="#0b2138"/><!-- antenna -->
  <rect x="155" y="370" width="45"  height="230" fill="#0d2442"/>
  <!-- Windows center-left -->
  <rect x="109" y="315" width="6"   height="6"   fill="#1FE9E1" opacity="0.7"/>
  <rect x="119" y="315" width="6"   height="6"   fill="#1FE9E1" opacity="0.5"/>
  <rect x="109" y="328" width="6"   height="6"   fill="#1FE9E1" opacity="0.4"/>
  <rect x="119" y="328" width="6"   height="6"   fill="#1FE9E1" opacity="0.6"/>
  <rect x="109" y="341" width="6"   height="6"   fill="#1FE9E1" opacity="0.5"/>
  <rect x="160" y="382" width="6"   height="6"   fill="#1FE9E1" opacity="0.4"/>
  <rect x="170" y="382" width="6"   height="6"   fill="#1FE9E1" opacity="0.6"/>
  <rect x="160" y="395" width="6"   height="6"   fill="#1FE9E1" opacity="0.5"/>

  <!-- Main center tower -->
  <rect x="210" y="240" width="70"  height="360" fill="#0c2240"/>
  <rect x="225" y="200" width="40"  height="40"  fill="#0b1f3c"/>
  <rect x="240" y="185" width="10"  height="18"  fill="#0b1f3c"/><!-- spire -->
  <!-- Windows center tower -->
  <rect x="218" y="255" width="8"   height="8"   fill="#1FE9E1" opacity="0.6"/>
  <rect x="231" y="255" width="8"   height="8"   fill="#1FE9E1" opacity="0.8"/>
  <rect x="244" y="255" width="8"   height="8"   fill="#1FE9E1" opacity="0.5"/>
  <rect x="258" y="255" width="8"   height="8"   fill="#1FE9E1" opacity="0.7"/>
  <rect x="218" y="270" width="8"   height="8"   fill="#1FE9E1" opacity="0.4"/>
  <rect x="231" y="270" width="8"   height="8"   fill="#1FE9E1" opacity="0.6"/>
  <rect x="244" y="270" width="8"   height="8"   fill="#1FE9E1" opacity="0.7"/>
  <rect x="258" y="270" width="8"   height="8"   fill="#1FE9E1" opacity="0.5"/>
  <rect x="218" y="285" width="8"   height="8"   fill="#1FE9E1" opacity="0.5"/>
  <rect x="231" y="285" width="8"   height="8"   fill="#1FE9E1" opacity="0.4"/>
  <rect x="244" y="285" width="8"   height="8"   fill="#1FE9E1" opacity="0.6"/>
  <rect x="258" y="285" width="8"   height="8"   fill="#1FE9E1" opacity="0.8"/>
  <rect x="218" y="300" width="8"   height="8"   fill="#1FE9E1" opacity="0.7"/>
  <rect x="231" y="300" width="8"   height="8"   fill="#1FE9E1" opacity="0.5"/>
  <rect x="244" y="300" width="8"   height="8"   fill="#1FE9E1" opacity="0.4"/>
  <rect x="258" y="300" width="8"   height="8"   fill="#1FE9E1" opacity="0.6"/>

  <!-- Buildings center-right -->
  <rect x="295" y="330" width="50"  height="270" fill="#0d2442"/>
  <rect x="310" y="310" width="25"  height="290" fill="#0b2138"/>
  <rect x="355" y="360" width="40"  height="240" fill="#0e2640"/>
  <rect x="362" y="340" width="26"  height="260" fill="#0b2138"/>
  <!-- Windows -->
  <rect x="315" y="320" width="6"   height="6"   fill="#1FE9E1" opacity="0.5"/>
  <rect x="323" y="320" width="6"   height="6"   fill="#1FE9E1" opacity="0.7"/>
  <rect x="315" y="332" width="6"   height="6"   fill="#1FE9E1" opacity="0.6"/>
  <rect x="323" y="332" width="6"   height="6"   fill="#1FE9E1" opacity="0.4"/>
  <rect x="365" y="348" width="6"   height="6"   fill="#1FE9E1" opacity="0.6"/>
  <rect x="374" y="348" width="6"   height="6"   fill="#1FE9E1" opacity="0.5"/>
  <rect x="365" y="361" width="6"   height="6"   fill="#1FE9E1" opacity="0.7"/>

  <!-- Buildings right -->
  <rect x="405" y="390" width="60"  height="210" fill="#0d2442"/>
  <rect x="420" y="370" width="35"  height="230" fill="#0a1f3a"/>
  <rect x="475" y="400" width="50"  height="200" fill="#0e2640"/>
  <rect x="490" y="375" width="28"  height="225" fill="#0b2138"/>
  <!-- Windows right -->
  <rect x="425" y="380" width="6"   height="6"   fill="#1FE9E1" opacity="0.5"/>
  <rect x="434" y="380" width="6"   height="6"   fill="#1FE9E1" opacity="0.7"/>
  <rect x="425" y="393" width="6"   height="6"   fill="#1FE9E1" opacity="0.6"/>
  <rect x="494" y="385" width="6"   height="6"   fill="#1FE9E1" opacity="0.4"/>
  <rect x="503" y="385" width="6"   height="6"   fill="#1FE9E1" opacity="0.6"/>

  <!-- Far right buildings -->
  <rect x="535" y="410" width="45"  height="190" fill="#0d2442"/>
  <rect x="548" y="395" width="22"  height="205" fill="#0a1f3a"/>
  <rect x="590" y="430" width="50"  height="170" fill="#0e2640"/>

  <!-- Ground reflection line -->
  <rect x="0" y="530" width="900" height="2" fill="#1FE9E1" opacity="0.15"/>
  <!-- Ground -->
  <rect x="0" y="532" width="900" height="68" fill="#060f1e"/>

  <!-- Reflection in ground -->
  <rect x="0" y="532" width="900" height="68" fill="url(#sky)" opacity="0.3"/>

  <!-- Bottom gradient overlay for text readability -->
  <defs>
    <linearGradient id="textBg" x1="0%" y1="0%" x2="0%" y2="100%">
      <stop offset="0%" stop-color="transparent"/>
      <stop offset="100%" stop-color="#071D3A" stop-opacity="0.85"/>
    </linearGradient>
  </defs>
  <rect x="0" y="400" width="900" height="200" fill="url(#textBg)"/>

  <!-- Text labels -->
  <text x="36" y="490" font-family="'Helvetica Neue',Helvetica,Arial,sans-serif" font-size="26" font-weight="800" fill="white" letter-spacing="1">Agenda Internacional CONAJOMX 2026</text>
  <text x="36" y="516" font-family="'Helvetica Neue',Helvetica,Arial,sans-serif" font-size="14" fill="rgba(255,255,255,0.65)" letter-spacing="2">10 EVENTOS  ·  6 PAÍSES  ·  G7  ·  G20  ·  OCDE  ·  HARVARD  ·  COP31</text>

  <!-- Cyan accent bar bottom -->
  <rect x="0" y="592" width="900" height="8" fill="#1FE9E1" opacity="0.75"/>
</svg>
